<mxfile host="app.diagrams.net" modified="2022-02-15T15:27:43.768Z" agent="5.0 (X11)" etag="zhGHfYuyWvKaFfCvOTDN" version="16.5.6" type="github">
  <diagram id="BqtSVfZS2E_lewIMDipD" name="task_2">
    <mxGraphModel dx="1135" dy="673" grid="1" gridSize="10" guides="1" tooltips="1" connect="1" arrows="1" fold="1" page="1" pageScale="1" pageWidth="827" pageHeight="1169" math="0" shadow="0">
      <root>
        <mxCell id="0" />
        <mxCell id="1" parent="0" />
        <mxCell id="4VsU8Vv7ObuxPuVI-XlP-13" value="" style="edgeStyle=orthogonalEdgeStyle;rounded=0;orthogonalLoop=1;jettySize=auto;html=1;" edge="1" parent="1" source="4VsU8Vv7ObuxPuVI-XlP-1" target="4VsU8Vv7ObuxPuVI-XlP-3">
          <mxGeometry relative="1" as="geometry" />
        </mxCell>
        <mxCell id="4VsU8Vv7ObuxPuVI-XlP-1" value="начало" style="rounded=1;whiteSpace=wrap;html=1;fontSize=12;glass=0;strokeWidth=1;shadow=0;" vertex="1" parent="1">
          <mxGeometry x="280" y="80" width="120" height="40" as="geometry" />
        </mxCell>
        <mxCell id="4VsU8Vv7ObuxPuVI-XlP-2" value="конец" style="rounded=1;whiteSpace=wrap;html=1;fontSize=12;glass=0;strokeWidth=1;shadow=0;verticalAlign=middle;" vertex="1" parent="1">
          <mxGeometry x="280" y="600" width="120" height="40" as="geometry" />
        </mxCell>
        <mxCell id="4VsU8Vv7ObuxPuVI-XlP-14" value="" style="edgeStyle=orthogonalEdgeStyle;rounded=0;orthogonalLoop=1;jettySize=auto;html=1;" edge="1" parent="1" source="4VsU8Vv7ObuxPuVI-XlP-3" target="4VsU8Vv7ObuxPuVI-XlP-6">
          <mxGeometry relative="1" as="geometry" />
        </mxCell>
        <mxCell id="4VsU8Vv7ObuxPuVI-XlP-3" value="&lt;div&gt;введите n&lt;/div&gt;" style="shape=parallelogram;perimeter=parallelogramPerimeter;whiteSpace=wrap;html=1;fixedSize=1;" vertex="1" parent="1">
          <mxGeometry x="280" y="160" width="120" height="40" as="geometry" />
        </mxCell>
        <mxCell id="4VsU8Vv7ObuxPuVI-XlP-15" value="" style="edgeStyle=orthogonalEdgeStyle;rounded=0;orthogonalLoop=1;jettySize=auto;html=1;" edge="1" parent="1" source="4VsU8Vv7ObuxPuVI-XlP-6" target="4VsU8Vv7ObuxPuVI-XlP-8">
          <mxGeometry relative="1" as="geometry" />
        </mxCell>
        <mxCell id="4VsU8Vv7ObuxPuVI-XlP-20" style="edgeStyle=orthogonalEdgeStyle;rounded=0;orthogonalLoop=1;jettySize=auto;html=1;" edge="1" parent="1" source="4VsU8Vv7ObuxPuVI-XlP-6" target="4VsU8Vv7ObuxPuVI-XlP-2">
          <mxGeometry relative="1" as="geometry">
            <Array as="points">
              <mxPoint x="590" y="280" />
              <mxPoint x="590" y="620" />
            </Array>
          </mxGeometry>
        </mxCell>
        <mxCell id="4VsU8Vv7ObuxPuVI-XlP-6" value="while n &amp;gt; 0" style="rhombus;whiteSpace=wrap;html=1;" vertex="1" parent="1">
          <mxGeometry x="280" y="240" width="120" height="80" as="geometry" />
        </mxCell>
        <mxCell id="4VsU8Vv7ObuxPuVI-XlP-16" style="edgeStyle=orthogonalEdgeStyle;rounded=0;orthogonalLoop=1;jettySize=auto;html=1;entryX=0.5;entryY=0;entryDx=0;entryDy=0;" edge="1" parent="1" source="4VsU8Vv7ObuxPuVI-XlP-7" target="4VsU8Vv7ObuxPuVI-XlP-12">
          <mxGeometry relative="1" as="geometry">
            <Array as="points">
              <mxPoint x="170" y="460" />
              <mxPoint x="340" y="460" />
            </Array>
          </mxGeometry>
        </mxCell>
        <mxCell id="4VsU8Vv7ObuxPuVI-XlP-7" value="odd += 1" style="rounded=0;whiteSpace=wrap;html=1;" vertex="1" parent="1">
          <mxGeometry x="110" y="370" width="120" height="60" as="geometry" />
        </mxCell>
        <mxCell id="4VsU8Vv7ObuxPuVI-XlP-9" value="" style="edgeStyle=orthogonalEdgeStyle;rounded=0;orthogonalLoop=1;jettySize=auto;html=1;" edge="1" parent="1" source="4VsU8Vv7ObuxPuVI-XlP-8" target="4VsU8Vv7ObuxPuVI-XlP-7">
          <mxGeometry relative="1" as="geometry">
            <Array as="points">
              <mxPoint x="250" y="400" />
              <mxPoint x="250" y="400" />
            </Array>
          </mxGeometry>
        </mxCell>
        <mxCell id="4VsU8Vv7ObuxPuVI-XlP-22" value="Нет" style="edgeLabel;html=1;align=center;verticalAlign=middle;resizable=0;points=[];" vertex="1" connectable="0" parent="4VsU8Vv7ObuxPuVI-XlP-9">
          <mxGeometry x="0.3124" y="1" relative="1" as="geometry">
            <mxPoint x="13" y="-11" as="offset" />
          </mxGeometry>
        </mxCell>
        <mxCell id="4VsU8Vv7ObuxPuVI-XlP-11" value="" style="edgeStyle=orthogonalEdgeStyle;rounded=0;orthogonalLoop=1;jettySize=auto;html=1;" edge="1" parent="1" source="4VsU8Vv7ObuxPuVI-XlP-8" target="4VsU8Vv7ObuxPuVI-XlP-10">
          <mxGeometry relative="1" as="geometry" />
        </mxCell>
        <mxCell id="4VsU8Vv7ObuxPuVI-XlP-23" value="Да" style="edgeLabel;html=1;align=center;verticalAlign=middle;resizable=0;points=[];" vertex="1" connectable="0" parent="4VsU8Vv7ObuxPuVI-XlP-11">
          <mxGeometry x="-0.1865" relative="1" as="geometry">
            <mxPoint x="-2" y="-10" as="offset" />
          </mxGeometry>
        </mxCell>
        <mxCell id="4VsU8Vv7ObuxPuVI-XlP-8" value="n % 10 % 2 == 0" style="rhombus;whiteSpace=wrap;html=1;" vertex="1" parent="1">
          <mxGeometry x="280" y="360" width="120" height="80" as="geometry" />
        </mxCell>
        <mxCell id="4VsU8Vv7ObuxPuVI-XlP-17" style="edgeStyle=orthogonalEdgeStyle;rounded=0;orthogonalLoop=1;jettySize=auto;html=1;entryX=0.5;entryY=0;entryDx=0;entryDy=0;" edge="1" parent="1" source="4VsU8Vv7ObuxPuVI-XlP-10" target="4VsU8Vv7ObuxPuVI-XlP-12">
          <mxGeometry relative="1" as="geometry">
            <Array as="points">
              <mxPoint x="500" y="460" />
              <mxPoint x="340" y="460" />
            </Array>
          </mxGeometry>
        </mxCell>
        <mxCell id="4VsU8Vv7ObuxPuVI-XlP-10" value="even += 1" style="rounded=0;whiteSpace=wrap;html=1;" vertex="1" parent="1">
          <mxGeometry x="440" y="370" width="120" height="60" as="geometry" />
        </mxCell>
        <mxCell id="4VsU8Vv7ObuxPuVI-XlP-19" style="edgeStyle=orthogonalEdgeStyle;rounded=0;orthogonalLoop=1;jettySize=auto;html=1;entryX=0;entryY=0.5;entryDx=0;entryDy=0;" edge="1" parent="1" source="4VsU8Vv7ObuxPuVI-XlP-12" target="4VsU8Vv7ObuxPuVI-XlP-6">
          <mxGeometry relative="1" as="geometry">
            <Array as="points">
              <mxPoint x="80" y="520" />
              <mxPoint x="80" y="280" />
            </Array>
          </mxGeometry>
        </mxCell>
        <mxCell id="4VsU8Vv7ObuxPuVI-XlP-12" value="n //= 10" style="rounded=0;whiteSpace=wrap;html=1;" vertex="1" parent="1">
          <mxGeometry x="280" y="490" width="120" height="60" as="geometry" />
        </mxCell>
      </root>
    </mxGraphModel>
  </diagram>
</mxfile>
